<?xml version="1.0" standalone="no"?>
<!DOCTYPE svg PUBLIC "-//W3C//DTD SVG 20010904//EN"
 "http://www.w3.org/TR/2001/REC-SVG-20010904/DTD/svg10.dtd">
<svg version="1.0" xmlns="http://www.w3.org/2000/svg"
 width="700.000000pt" height="700.000000pt" viewBox="0 0 700.000000 700.000000"
 preserveAspectRatio="xMidYMid meet">
<metadata>
Created by potrace 1.14, written by Peter Selinger 2001-2017
</metadata>
<g transform="translate(0.000000,700.000000) scale(0.100000,-0.100000)"
fill="#000000" stroke="none">
<path d="M1191 6989 c-588 -77 -1049 -509 -1168 -1096 -17 -83 -18 -213 -18
-2393 0 -2180 1 -2310 18 -2393 112 -552 509 -953 1067 -1080 l95 -22 2310 0
c2170 0 2315 1 2397 18 558 113 972 527 1085 1085 17 82 18 226 18 2392 0
2166 -1 2310 -18 2392 -112 551 -506 952 -1062 1081 -90 21 -92 21 -2375 23
-1257 1 -2314 -2 -2349 -7z m1784 -2281 c125 -26 238 -106 286 -203 20 -42 24
-64 24 -140 0 -79 -4 -98 -31 -155 -120 -253 -456 -435 -917 -495 -205 -26
-269 -18 -295 40 -18 39 -14 89 9 118 24 32 65 43 189 52 183 12 413 71 550
140 168 84 280 205 280 302 0 72 -55 114 -179 135 -84 14 -229 1 -356 -32
-422 -112 -824 -478 -852 -776 -7 -71 12 -137 47 -169 19 -17 23 -17 83 1 164
50 291 0 305 -121 6 -59 -3 -88 -39 -130 -60 -68 -178 -81 -305 -34 l-56 21
-71 -36 c-159 -79 -289 -188 -337 -283 -20 -39 -25 -63 -25 -125 0 -69 3 -80
30 -120 88 -125 292 -188 537 -167 325 29 734 218 1036 479 74 64 80 73 106
147 90 255 194 366 315 333 42 -11 87 -55 97 -96 4 -14 4 -47 2 -74 -6 -64
-49 -134 -159 -260 -83 -94 -87 -102 -94 -157 -7 -67 5 -136 31 -164 12 -13
30 -19 63 -19 69 0 157 46 242 127 l72 69 -26 55 c-94 195 -28 448 131 500 91
30 195 -15 241 -106 45 -86 32 -232 -30 -357 -23 -45 -18 -48 90 -48 146 0
276 51 312 123 62 121 190 259 301 325 236 140 494 111 539 -61 12 -43 14 -45
43 -40 44 6 115 -33 138 -77 22 -42 24 -122 3 -179 -23 -67 -84 -150 -174
-237 -80 -80 -82 -83 -61 -94 36 -19 132 4 245 60 134 67 218 130 356 271 126
129 152 144 207 115 70 -36 82 -105 30 -177 -80 -111 -261 -268 -419 -364
-128 -77 -246 -118 -360 -123 -82 -4 -102 -1 -147 18 -29 12 -66 38 -82 57
l-31 34 -82 -35 c-104 -45 -163 -58 -257 -58 -158 0 -280 89 -310 227 -4 17
-11 29 -16 28 -5 -1 -47 -9 -93 -18 -101 -21 -251 -16 -324 10 l-47 17 -89
-84 c-147 -139 -257 -192 -402 -193 -76 0 -92 3 -144 30 -81 41 -127 105 -161
223 -2 8 -30 -7 -76 -41 -278 -203 -649 -360 -943 -398 -113 -15 -328 -6 -415
16 -388 101 -557 426 -380 733 63 108 226 254 358 321 25 13 41 27 38 34 -54
123 -59 143 -60 237 -1 73 5 112 23 170 136 436 654 823 1192 889 81 10 216 5
294 -11z"/>
<path d="M4785 3262 c-133 -46 -242 -146 -307 -281 -52 -106 -63 -186 -30
-219 49 -49 167 -33 305 41 l80 43 24 85 c13 46 32 102 42 125 18 40 18 40 -5
68 -28 32 -32 91 -9 122 8 10 15 22 15 27 0 13 -63 7 -115 -11z"/>
</g>
</svg>